<svg xmlns="http://www.w3.org/2000/svg" width="898" height="898" viewBox="0 0 898 898">
  <g id="Group_4" data-name="Group 4" transform="translate(-772 -330)">
    <g id="Component_1_1" data-name="Component 1 – 1" transform="translate(772 330)">
      <path id="Path_3" data-name="Path 3" d="M1076.473,330h248.183l323.107,321.324v376.935l-99.751,99.751,99.751,99.751h-99.751l-58.371-61.741-41.381,61.741h-99.751l199.5-199.5V796.567l-99.751-98.709v317.279l-99.751,112.874H1076.473L949.5,1015.137V697.858l-99.751,98.709v231.692l199.5,199.5H949.5l-40.835-61.741-58.916,61.741H750l99.751-99.751L750,1028.259V651.324Z" transform="translate(-750 -330)" fill="#ed3541"/>
      <g id="Path_4" data-name="Path 4" transform="translate(-585.117 -12.824)" fill="rgba(0,0,0,0.77)" stroke-linecap="round" stroke-linejoin="round">
        <path d="M820.917,578.24,934.573,466.417H1141.72L1253.543,578.24,1141.72,695.563H934.573Z" stroke="none"/>
        <path d="M 934.57275390625 466.4171142578125 L 820.91650390625 578.240234375 L 934.57275390625 695.5628662109375 L 1141.72021484375 695.5628662109375 L 1253.54345703125 578.240234375 L 1141.72021484375 466.4171142578125 L 934.57275390625 466.4171142578125 M 934.57275390625 465.4171142578125 L 1141.72021484375 465.4171142578125 C 1141.9853515625 465.4171142578125 1142.23974609375 465.5224609375 1142.42724609375 465.7099609375 L 1254.25048828125 577.5330810546875 C 1254.634399414062 577.9170532226562 1254.641845703125 578.5371704101562 1254.267333984375 578.93017578125 L 1142.444091796875 696.2528076171875 C 1142.25537109375 696.4508056640625 1141.993774414062 696.5628662109375 1141.72021484375 696.5628662109375 L 934.57275390625 696.5628662109375 C 934.302001953125 696.5628662109375 934.0428466796875 696.453125 933.8544921875 696.2586669921875 L 820.1982421875 578.9359741210938 C 819.8160400390625 578.54150390625 819.8236083984375 577.91259765625 820.215087890625 577.5274047851562 L 933.8714599609375 465.7042846679688 C 934.0584716796875 465.5202026367188 934.3104248046875 465.4171142578125 934.57275390625 465.4171142578125 Z" stroke="none" fill="rgba(0,0,0,0.77)"/>
      </g>
      <path id="Path_5" data-name="Path 5" d="M855.1,466.417v73.327h29.331V466.417Z" transform="translate(-505.642 -12.824)" fill="#fff"/>
      <path id="Path_6" data-name="Path 6" d="M872.188,466.934V540.26H904.47V466.934Z" transform="translate(-465.908 -13.341)" fill="#fff"/>
      <path id="Path_7" data-name="Path 7" d="M890.007,466.934V540.26h33.229V466.934Z" transform="translate(-424.479 -13.341)" fill="#fff"/>
      <path id="Path_8" data-name="Path 8" d="M907.025,466.934V540.26h31.143V466.934Z" transform="translate(-384.909 -13.341)" fill="#fff"/>
      <path id="Path_9" data-name="Path 9" d="M855.1,589.623V511.982h31.718v77.642Z" transform="translate(-505.642 93.115)" fill="#fff"/>
      <path id="Path_10" data-name="Path 10" d="M872.188,589.623V511.982H903.86v77.642Z" transform="translate(-465.908 93.115)" fill="#fff"/>
      <path id="Path_11" data-name="Path 11" d="M890.007,589.475V511.833h33.229v77.642Z" transform="translate(-424.479 93.264)" fill="#fff"/>
      <path id="Path_12" data-name="Path 12" d="M907.025,589.475V511.833H937.9v77.642Z" transform="translate(-384.909 93.264)" fill="#fff"/>
      <path id="Path_13" data-name="Path 13" d="M855.1,516.987v-52.15h22.386V403.214h45.165v61.623H944.2v52.15H922.649v-25.15H877.484v25.15Z" transform="translate(-505.642 -170.499)" fill="rgba(0,0,0,0.77)" stroke="rgba(0,0,0,0.77)" stroke-width="1"/>
      <path id="Path_14" data-name="Path 14" d="M855.1,516.987v-52.15h22.041V403.214h44.468v61.623h21.223v52.15H921.606v-25.15H877.139v25.15Z" transform="translate(-389.57 -170.499)" fill="rgba(0,0,0,0.77)" stroke="rgba(0,0,0,0.77)" stroke-width="1"/>
    </g>
  </g>
</svg>
